<svg width="55" height="81" viewBox="0 0 55 81" fill="none" xmlns="http://www.w3.org/2000/svg">
<rect width="55" height="81" fill="white"/>
<rect width="55" height="81" fill="#A84556"/>
<path d="M7.15 25.8642V0H13.3069V21.0608H26.2167V25.8642H7.15Z" fill="black"/>
<path d="M37.7361 0L29.5931 25.8642H35.9486L37.7361 19.5829H45.8792L47.8653 25.8642H54.2208V22.9083L45.8792 0H37.7361Z" fill="black"/>
<path d="M0 32.3302V27.1574H26.2167V32.3302H13.3069V53.0215H7.15V32.3302H0Z" fill="black"/>
<path d="M28.9972 53.0215V27.1574H35.9486V53.0215H28.9972Z" fill="black"/>
<path d="M7.15 80.9179V54.4995C8.73889 54.4995 18.7192 54.342 19.4639 54.4995C27.0316 56.0995 28.4014 60.9655 26.4153 65.5841C25.1281 67.5894 22.2444 67.9858 22.2444 67.9858C22.2444 67.9858 27.8056 70.757 27.8056 80.9179C22.4431 80.9179 21.45 81.1026 21.45 80.9179C21.45 71.5962 18.0736 70.3875 13.3069 70.757V80.9179H7.15Z" fill="black"/>
<path d="M37.7361 54.869L29.3944 80.5484H35.9486L37.7361 74.2671H45.8792L47.6667 80.9179H54.6181V79.9942L45.8792 54.869H37.7361Z" fill="black"/>
<path d="M40.1194 43.2301V37.503H54.6181V43.2301H40.1194Z" fill="black"/>
<path d="M41.8993 6.01306L39.1254 14.5001H44.8713L41.8993 6.01306Z" fill="#A84556"/>
<path d="M45.0694 70.0349H39.1254L41.7012 59.8873L45.0694 70.0349Z" fill="#A84556"/>
<path d="M13.368 66.5294V59.3338H18.2306C20.7155 59.3338 21.0953 62.1013 21.0953 63.0239C21.0953 65.6069 19.7083 66.5294 18.3214 66.5294H13.368Z" fill="#A84556"/>
</svg>
